<svg width="35" height="35" viewBox="0 0 35 35" fill="none" xmlns="http://www.w3.org/2000/svg">
<path d="M23.1667 20.3333C23.1667 21.5068 24.1182 22.4583 25.2917 22.4583C26.4653 22.4583 27.4167 21.5068 27.4167 20.3333C27.4167 19.1597 26.4653 18.2083 25.2917 18.2083C24.1182 18.2083 23.1667 19.1597 23.1667 20.3333Z" stroke="#6CAE73" stroke-width="1.5"/>
<path d="M27.275 11.8333C27.3679 11.3755 27.4167 10.9018 27.4167 10.4166C27.4167 6.50457 24.2453 3.33325 20.3333 3.33325C16.4214 3.33325 13.25 6.50457 13.25 10.4166C13.25 10.9018 13.2988 11.3755 13.3917 11.8333" stroke="#6CAE73" stroke-width="1.5"/>
<path d="M10.4166 11.8238H23.1666C27.1735 11.8238 29.1769 11.8238 30.4218 13.0692C31.6666 14.3146 31.6666 16.319 31.6666 20.3279V23.1626C31.6666 27.1715 31.6666 29.176 30.4218 30.4214C29.1769 31.6667 27.1735 31.6667 23.1666 31.6667H14.6666C9.324 31.6667 6.65271 31.6667 4.99298 30.0063C3.33325 28.3457 3.33325 25.6731 3.33325 20.3279V17.4933C3.33325 12.1481 3.33325 9.47549 4.99298 7.81495C6.32902 6.47827 8.32053 6.21759 11.8333 6.16675H14.6666" stroke="#6CAE73" stroke-width="1.5" stroke-linecap="round"/>
</svg>
