<svg width="35" height="35" viewBox="0 0 35 35" fill="none" xmlns="http://www.w3.org/2000/svg">
<path d="M10.4167 28.8334C8.85186 28.8334 7.58333 27.5649 7.58333 26.0001C7.58333 24.4353 8.85186 23.1667 10.4167 23.1667C11.9815 23.1667 13.25 24.4353 13.25 26.0001C13.25 27.5649 11.9815 28.8334 10.4167 28.8334Z" stroke="#6CAE73" stroke-width="1.5"/>
<path d="M24.5834 28.8334C23.0186 28.8334 21.7501 27.5649 21.7501 26.0001C21.7501 24.4353 23.0186 23.1667 24.5834 23.1667C26.1482 23.1667 27.4167 24.4353 27.4167 26.0001C27.4167 27.5649 26.1482 28.8334 24.5834 28.8334Z" stroke="#6CAE73" stroke-width="1.5"/>
<path d="M18.9167 13.25V17.5" stroke="#6CAE73" stroke-width="1.5" stroke-linecap="round"/>
<path d="M24.5833 14.6667V17.5001" stroke="#6CAE73" stroke-width="1.5" stroke-linecap="round"/>
<path d="M10.4167 6.16675H13.2501M13.2501 6.16675H21.0626C22.7998 6.16675 23.6684 6.16675 24.4494 6.49026C25.2304 6.81377 25.8446 7.42796 27.073 8.65634L29.5921 11.1754C30.6157 12.1991 31.1276 12.7109 31.3972 13.3618C31.6667 14.0126 31.6667 14.7364 31.6667 16.1841V18.9167C31.6667 22.2558 31.6667 23.9254 30.6294 24.9628C29.9397 25.6524 28.9704 25.8836 27.4167 25.961M13.2501 6.16675V11.8334C13.2501 14.5047 13.2501 15.8403 12.4202 16.6702C11.5903 17.5001 10.2547 17.5001 7.58341 17.5001H3.33341V18.9167C3.33341 22.2558 3.33341 23.9254 4.3707 24.9628C5.06047 25.6524 6.02976 25.8836 7.58341 25.961M21.7501 26.0001H13.2501" stroke="#6CAE73" stroke-width="1.5" stroke-linecap="round" stroke-linejoin="round"/>
<path d="M13.25 10.4167H10.8419C8.91769 10.4167 7.95549 10.4167 7.1725 10.9178C6.38951 11.4189 5.93334 12.3266 5.02101 14.1419L3.33333 17.5001" stroke="#6CAE73" stroke-width="1.5" stroke-linecap="round" stroke-linejoin="round"/>
</svg>
