<svg width="35" height="35" viewBox="0 0 35 35" fill="none" xmlns="http://www.w3.org/2000/svg">
<path d="M14.2802 3.33325C9.66019 3.33325 7.35015 3.33325 5.74593 4.46353C5.2863 4.78736 4.87824 5.17141 4.53416 5.60401C3.33325 7.11387 3.33325 9.28801 3.33325 13.6363V17.2424C3.33325 21.4402 3.33325 23.539 3.99758 25.2154C5.06557 27.9104 7.3242 30.0361 10.1876 31.0413C11.9687 31.6666 14.1988 31.6666 18.659 31.6666C21.2078 31.6666 22.4821 31.6666 23.4998 31.3093C25.136 30.735 26.4266 29.5202 27.0369 27.9803C27.4166 27.0223 27.4166 25.823 27.4166 23.4241V22.4583" stroke="#6CAE73" stroke-width="1.5" stroke-linecap="round" stroke-linejoin="round"/>
<path d="M21.75 11.1251C21.75 11.1251 22.4583 11.1251 23.1667 12.5417C23.1667 12.5417 25.4166 9.00008 27.4167 8.29175" stroke="#6CAE73" stroke-width="1.5" stroke-linecap="round" stroke-linejoin="round"/>
<path d="M31.6667 10.4166C31.6667 14.3286 28.4953 17.4999 24.5833 17.4999C20.6714 17.4999 17.5 14.3286 17.5 10.4166C17.5 6.50457 20.6714 3.33325 24.5833 3.33325C28.4953 3.33325 31.6667 6.50457 31.6667 10.4166Z" stroke="#6CAE73" stroke-width="1.5" stroke-linecap="round"/>
<path d="M3.33325 17.5C3.33325 20.1079 5.44746 22.2222 8.05547 22.2222C8.99867 22.2222 10.1106 22.057 11.0277 22.3026C11.8425 22.5209 12.4789 23.1575 12.6972 23.9722C12.943 24.8893 12.7777 26.0013 12.7777 26.9445C12.7777 29.5524 14.892 31.6667 17.4999 31.6667" stroke="#6CAE73" stroke-width="1.5" stroke-linecap="round" stroke-linejoin="round"/>
</svg>
