<svg width="35" height="35" viewBox="0 0 35 35" fill="none" xmlns="http://www.w3.org/2000/svg">
<path d="M5.10425 7.58325H12.7962C13.7436 7.58325 14.6282 7.1098 15.1537 6.32157L16.3048 4.59494C16.8303 3.8067 17.715 3.33325 18.6623 3.33325H25.0205C26.2399 3.33325 27.3227 4.11364 27.7083 5.2706L28.4792 7.58325M30.6042 7.58325H12.1876" stroke="#6CAE73" stroke-width="1.5" stroke-linecap="round"/>
<path d="M28.4792 7.58325L27.7709 16.7916M7.22925 7.58325L8.08578 22.5095C8.30514 26.1514 8.41483 27.9723 9.32404 29.2818C9.77358 29.9292 10.3527 30.4756 11.0246 30.8863C11.8494 31.3905 12.8441 31.5887 14.3126 31.6666" stroke="#6CAE73" stroke-width="1.5" stroke-linecap="round"/>
<path d="M16.4375 22.4555L18.0473 24.5321C18.8572 21.509 21.9645 19.7151 24.9874 20.525C26.5348 20.9397 27.7602 21.9563 28.4792 23.2554M30.6042 29.5388L28.9944 27.4653C28.1844 30.4883 25.0772 32.2822 22.0542 31.4722C20.5427 31.0673 19.3384 30.0879 18.6134 28.8319" stroke="#6CAE73" stroke-width="1.5" stroke-linecap="round" stroke-linejoin="round"/>
</svg>
