<svg width="35" height="35" viewBox="0 0 35 35" fill="none" xmlns="http://www.w3.org/2000/svg">
<path d="M17.5 11.8333V17.4999L19.625 19.6249" stroke="#6CAE73" stroke-width="1.5" stroke-linecap="round" stroke-linejoin="round"/>
<path d="M28.1894 23.8089C30.5077 25.0607 31.6668 25.6867 31.6668 26.7083C31.6668 27.7298 30.5077 28.3559 28.1894 29.6076L26.6108 30.4602C24.8305 31.4215 23.9404 31.9022 23.5123 31.5527C22.4641 30.6968 24.0971 28.4878 24.4989 27.7052C24.906 26.9123 24.8986 26.49 24.4989 25.7114C24.0971 24.9288 22.4641 22.7198 23.5123 21.8638C23.9404 21.5144 24.8305 21.995 26.6108 22.9564L28.1894 23.8089Z" stroke="#6CAE73" stroke-width="1.5"/>
<path d="M18.9536 31.5929C18.4757 31.6417 17.9907 31.6666 17.4999 31.6666C9.67588 31.6666 3.33325 25.3239 3.33325 17.4999C3.33325 9.67588 9.67588 3.33325 17.4999 3.33325C25.3239 3.33325 31.6666 9.67588 31.6666 17.4999C31.6666 18.4702 31.569 19.4178 31.3833 20.3333" stroke="#6CAE73" stroke-width="1.5" stroke-linecap="round"/>
</svg>
