<svg width="1200" height="690" viewBox="0 0 1200 690" fill="none" xmlns="http://www.w3.org/2000/svg">
<path d="M-14.7048 67.5771C31.3736 34.1441 166.766 -41.2579 339.707 -75.4022M1247.06 150.804C1177.45 138 1014.71 109.546 920.589 98.1647C802.942 83.9379 727.942 -31.2992 1082.35 -127.33M1223.53 454.546C1188.24 510.505 1068.24 595.676 794.119 514.299M1251.47 560.536C1224.51 581.639 1125.88 619.719 947.06 603.216M735.295 603.216C809.805 635.464 1032.94 708.779 1223.53 658.701M426.472 589.701C422.55 611.989 468.53 666.526 683.825 706.361M295.589 721.299C256.864 694.979 168.825 631.812 126.472 589.701C73.5305 537.062 -14.7048 210.556 295.589 150.804" stroke="#D9F9DA" stroke-width="2.5"/>
</svg>
