<svg width="25" height="24" viewBox="0 0 25 24" fill="none" xmlns="http://www.w3.org/2000/svg">
<path fill-rule="evenodd" clip-rule="evenodd" d="M12.62 1.58558C11.4084 1.58558 10.21 1.80258 9.09359 2.22297C7.97724 2.64334 6.96678 3.25806 6.11849 4.02924C5.27032 4.8003 4.6013 5.71219 4.14622 6.71097C3.69125 7.70952 3.45813 8.77717 3.45813 9.85357C3.45813 10.224 3.15784 10.5243 2.78742 10.5243C2.41699 10.5243 2.1167 10.224 2.1167 9.85357C2.1167 8.58227 2.39224 7.32521 2.92553 6.15478C3.45872 4.98457 4.23823 3.92566 5.21614 3.03665C6.19392 2.14776 7.35134 1.44564 8.62087 0.967587C9.89036 0.489549 11.2491 0.244141 12.62 0.244141C13.9909 0.244141 15.3496 0.489549 16.6191 0.967586C17.8887 1.44564 19.0461 2.14776 20.0239 3.03665C21.0018 3.92566 21.7813 4.98457 22.3145 6.15478C22.8478 7.32521 23.1233 8.58227 23.1233 9.85357C23.1233 10.224 22.823 10.5243 22.4526 10.5243C22.0822 10.5243 21.7819 10.224 21.7819 9.85357C21.7819 8.77717 21.5487 7.70952 21.0938 6.71097C20.6387 5.71219 19.9697 4.8003 19.1215 4.02924C18.2732 3.25806 17.2628 2.64334 16.1464 2.22297C15.03 1.80258 13.8316 1.58558 12.62 1.58558Z" fill="white"/>
<path fill-rule="evenodd" clip-rule="evenodd" d="M12.6207 21.6971C13.8323 21.6971 15.0307 21.4801 16.1471 21.0597C17.2635 20.6394 18.2739 20.0247 19.1222 19.2535C19.9704 18.4824 20.6394 17.5705 21.0945 16.5717C21.5495 15.5732 21.7826 14.5055 21.7826 13.4291C21.7826 13.0587 22.0829 12.7584 22.4533 12.7584C22.8237 12.7584 23.124 13.0587 23.124 13.4291C23.124 14.7004 22.8485 15.9575 22.3152 17.1279C21.782 18.2981 21.0025 19.3571 20.0246 20.2461C19.0468 21.135 17.8894 21.8371 16.6199 22.3151C15.3504 22.7932 13.9916 23.0386 12.6207 23.0386C11.2498 23.0386 9.89109 22.7932 8.6216 22.3151C7.35207 21.8371 6.19465 21.135 5.21687 20.2461C4.23896 19.3571 3.45945 18.2982 2.92626 17.1279C2.39297 15.9575 2.11743 14.7004 2.11743 13.4292C2.11743 13.0587 2.41772 12.7584 2.78814 12.7584C3.15857 12.7584 3.45886 13.0587 3.45886 13.4292C3.45886 14.5055 3.69198 15.5732 4.14695 16.5717C4.60203 17.5705 5.27104 18.4824 6.11921 19.2535C6.96751 20.0247 7.97797 20.6394 9.09432 21.0597C10.2107 21.4801 11.4092 21.6971 12.6207 21.6971Z" fill="white"/>
<path fill-rule="evenodd" clip-rule="evenodd" d="M20.3854 7.71665C20.5782 7.56238 20.8596 7.59365 21.0139 7.78648L22.4524 9.58471L23.891 7.78648C24.0453 7.59365 24.3267 7.56238 24.5195 7.71665C24.7123 7.87092 24.7436 8.15231 24.5893 8.34514L22.8016 10.5798C22.7167 10.6859 22.5883 10.7476 22.4524 10.7476C22.3166 10.7476 22.1881 10.6859 22.1033 10.5798L20.3155 8.34514C20.1613 8.15231 20.1925 7.87092 20.3854 7.71665Z" fill="white"/>
<path fill-rule="evenodd" clip-rule="evenodd" d="M4.85536 15.1188C4.66252 15.2731 4.38114 15.2418 4.22687 15.049L2.78829 13.2507L1.34971 15.049C1.19544 15.2418 0.914056 15.2731 0.72122 15.1188C0.528383 14.9645 0.497118 14.6831 0.651388 14.4903L2.43913 12.2556C2.52398 12.1496 2.65245 12.0878 2.78829 12.0878C2.92413 12.0878 3.0526 12.1496 3.13745 12.2556L4.92519 14.4903C5.07946 14.6831 5.0482 14.9645 4.85536 15.1188Z" fill="white"/>
<g clip-path="url(#clip0_859_373)">
<path opacity="0.2" d="M19.038 14.644C18.529 15.729 17.7541 16.6678 16.7853 17.3732L16.0949 16.6821C16.0209 16.6078 15.9285 16.5546 15.8271 16.5279L14.2435 16.1104C14.1031 16.0735 13.9812 15.9861 13.9012 15.865C13.8212 15.7439 13.7886 15.5975 13.8097 15.4539L13.9853 14.259C14.0002 14.1581 14.041 14.0628 14.1037 13.9824C14.1664 13.902 14.2489 13.8392 14.343 13.8002L16.5891 12.8664C16.6929 12.8233 16.8068 12.8107 16.9175 12.8302C17.0282 12.8497 17.131 12.9004 17.2138 12.9763L19.038 14.644Z" fill="white"/>
<path opacity="0.2" d="M16.7511 7.6582C16.751 7.79954 16.7003 7.93617 16.608 8.04324L14.9727 9.94482C14.8784 10.0544 14.7472 10.1255 14.6039 10.1447L12.2833 10.4589C12.133 10.4789 11.9808 10.4406 11.8577 10.352L10.3965 9.39308C10.3324 9.34645 10.2595 9.31322 10.1823 9.29537C10.1051 9.27752 10.025 9.27542 9.94695 9.28919C9.86888 9.30296 9.79439 9.33232 9.72791 9.37551C9.66144 9.41871 9.60435 9.47485 9.56006 9.5406L8.01548 11.8493C7.95132 11.9458 7.91671 12.0588 7.91591 12.1746L7.89968 14.8492C7.89909 14.9465 7.87448 15.0421 7.82802 15.1276C7.78157 15.213 7.71471 15.2856 7.6334 15.339L6.90168 15.8199C5.90514 14.4601 5.4265 12.7892 5.55183 11.108C5.67716 9.4267 6.39824 7.84531 7.58538 6.6482C8.77253 5.4511 10.3478 4.71684 12.028 4.57747C13.7082 4.4381 15.3829 4.90277 16.7511 5.88792V7.6582Z" fill="white"/>
<path fill-rule="evenodd" clip-rule="evenodd" d="M12.6205 5.28672C9.11098 5.28672 6.26596 8.13173 6.26596 11.6412C6.26596 15.1507 9.11098 17.9958 12.6205 17.9958C16.13 17.9958 18.975 15.1507 18.975 11.6412C18.975 8.13173 16.13 5.28672 12.6205 5.28672ZM4.81274 11.6412C4.81274 7.32914 8.30839 3.8335 12.6205 3.8335C16.9326 3.8335 20.4282 7.32914 20.4282 11.6412C20.4282 15.9533 16.9326 19.449 12.6205 19.449C8.30839 19.449 4.81274 15.9533 4.81274 11.6412Z" fill="white"/>
<path fill-rule="evenodd" clip-rule="evenodd" d="M16.7874 13.5709L14.6929 14.4417L14.5464 15.4388L16.0093 15.8231C16.2352 15.8826 16.4413 16.0011 16.6063 16.1666C16.6064 16.1667 16.6066 16.1669 16.6067 16.1671L17.2965 16.8575C17.5801 17.1414 17.5798 17.6015 17.2959 17.8851C17.012 18.1687 16.5519 18.1685 16.2683 17.8846L15.6035 17.219L14.0589 16.8132C13.7456 16.7308 13.4736 16.5358 13.295 16.2656C13.1165 15.9953 13.0438 15.6688 13.0909 15.3483C13.0909 15.3484 13.0909 15.3483 13.0909 15.3483L13.2665 14.1528C13.2998 13.9277 13.3908 13.7151 13.5307 13.5357C13.6705 13.3564 13.8543 13.2164 14.0641 13.1293C14.0641 13.1293 14.0642 13.1293 14.0641 13.1293C14.0643 13.1292 14.0647 13.1291 14.0648 13.129L16.3106 12.1953C16.5422 12.0992 16.7965 12.0712 17.0434 12.1146C17.2902 12.158 17.5194 12.2709 17.7042 12.44M17.7047 12.4405L19.5283 14.1078C19.8245 14.3786 19.8451 14.8382 19.5743 15.1344C19.3035 15.4305 18.8439 15.4511 18.5477 15.1803L16.7874 13.5709" fill="white"/>
<path d="M6.90259 15.8197L7.6343 15.3388C7.71534 15.2853 7.78191 15.2125 7.8281 15.1271C7.8743 15.0417 7.89869 14.9461 7.89911 14.849L7.9146 12.1766C7.9154 12.0608 7.95001 11.9478 8.01418 11.8513L9.55875 9.54259C9.60305 9.47685 9.66013 9.4207 9.72661 9.3775C9.79308 9.33431 9.86758 9.30495 9.94565 9.29118C10.0237 9.27741 10.1038 9.27951 10.181 9.29736C10.2582 9.31521 10.3311 9.34844 10.3952 9.39507L11.8564 10.354C11.9795 10.4426 12.1317 10.4809 12.282 10.4609L14.6026 10.1467C14.7459 10.1275 14.8771 10.0564 14.9714 9.94681L16.6074 8.04154C16.6994 7.93486 16.7501 7.79881 16.7505 7.65798V5.8877" stroke="white" stroke-width="1.5" stroke-linecap="round" stroke-linejoin="round"/>
</g>
<defs>
<clipPath id="clip0_859_373">
<rect width="18.883" height="18.883" fill="white" transform="translate(3.17871 2.19971)"/>
</clipPath>
</defs>
</svg>
